<?xml version="1.0" encoding="iso-8859-1"?>
<!-- Generator: Adobe Illustrator 19.0.0, SVG Export Plug-In . SVG Version: 6.00 Build 0)  -->
<svg version="1.1" id="Capa_1" xmlns="http://www.w3.org/2000/svg" xmlns:xlink="http://www.w3.org/1999/xlink" x="0px" y="0px"
	 viewBox="0 0 511.936 511.936" style="enable-background:new 0 0 511.936 511.936;" xml:space="preserve">
<g>
	<g>
		<path d="M281.569,245.935c-0.847-0.521-1.821-0.874-2.804-1.028l-21.76-3.84c-4.025-0.712-7.979,2.058-8.689,6.083
			c-0.71,4.025,2.057,7.979,6.082,8.689l20.534,3.624l68.288,41.96c3.334,2.049,7.906,1.054,10.119-2.166
			c2.375-3.455,1.303-8.421-2.266-10.615L281.569,245.935z"/>
		<path d="M498.848,290.687l-30.405,28.416L329.122,181.639L509.098,12.972c3.022-2.833,3.176-7.579,0.344-10.601
			c-2.832-3.022-7.579-3.176-10.601-0.344l-185.667,174c-3.062,2.869-3.126,7.864-0.139,10.812l12.323,12.158l-3.934,3.474
			l-82.371-7.093c-1.271-0.108-2.592,0.111-3.752,0.647l-65.265,29.724c-0.19-0.049-0.38-0.097-0.577-0.132l-37.541-6.625
			l3.036-7.76c1.501-3.837-0.374-8.167-4.199-9.696l-120-48c-3.848-1.541-8.211,0.332-9.749,4.178
			c-1.539,3.846,0.332,8.211,4.178,9.749l113.089,45.236L51.63,383.007L10.473,368.43c-3.906-1.382-8.191,0.661-9.574,4.566
			s0.662,8.191,4.566,9.574l48,17c3.768,1.335,8.033-0.618,9.488-4.337l11.138-28.463l29.183,16.354l-3.219,5.217
			c-9.12,14.781-4.515,34.227,10.267,43.348c7.817,4.823,17.521,5.967,26.256,3.14c1.401,9.103,6.75,17.226,14.594,22.065
			c7.817,4.823,17.52,5.967,26.256,3.14c1.402,9.103,6.749,17.225,14.593,22.065c7.841,4.838,17.494,5.977,26.258,3.149
			c1.404,9.099,6.75,17.218,14.592,22.056c11.398,7.032,26.484,5.981,36.757-2.63c2.59-2.171,4.818-4.761,6.592-7.637l5.116-8.291
			l4.212,2.588c11.413,7.012,26.495,5.932,36.752-2.698c2.586-2.176,4.809-4.77,6.578-7.649c3.516-5.722,4.97-12.136,4.586-18.379
			c2.382,0.573,4.819,0.881,7.279,0.881c10.893,0,21.196-5.744,26.897-15.021c3.434-5.589,5.002-11.961,4.604-18.376
			c2.376,0.57,4.808,0.876,7.26,0.876c10.893,0,21.197-5.744,26.897-15.021c3.437-5.593,5.004-11.97,4.603-18.389
			c2.402,0.572,4.84,0.871,7.268,0.871c10.593,0,20.95-5.333,26.891-15.001c9.093-14.799,4.451-34.236-10.348-43.329l-5.139-3.158
			l17.237-18.01l16.123,15.908c2.828,2.789,7.488,2.851,10.389,0.141l35.667-33.333c3.026-2.828,3.186-7.574,0.358-10.601
			C506.62,288.019,501.875,287.859,498.848,290.687z M118.199,418.923c-7.743-4.777-10.155-14.963-5.378-22.706l42.009-68.083
			c4.688-7.599,14.749-10.084,22.431-5.545c7.949,4.699,10.143,15.597,5.37,23.333l-41.725,67.623
			C136.128,421.287,125.942,423.699,118.199,418.923z M159.049,444.128c-7.649-4.72-10.106-15.045-5.378-22.706l33.606-54.466
			c4.688-7.598,14.749-10.084,22.431-5.545c7.949,4.699,10.143,15.597,5.369,23.333l-33.323,54.006
			C176.978,446.492,166.791,448.905,159.049,444.128z M212.366,471.347c-4.29,1.017-8.717,0.3-12.467-2.014
			c-7.648-4.72-10.105-15.046-5.377-22.706l25.205-40.85c4.688-7.599,14.75-10.084,22.431-5.545
			c7.949,4.699,10.143,15.597,5.37,23.333l-24.921,40.39C220.291,467.706,216.654,470.331,212.366,471.347z M263.455,489.161
			c-4.72,7.649-15.045,10.104-22.707,5.377c-7.648-4.719-10.104-15.046-5.377-22.706l16.803-27.233
			c4.688-7.597,14.75-10.086,22.431-5.544c7.949,4.698,10.143,15.597,5.37,23.333L263.455,489.161z M416.602,328.907l-37.177-22.844
			c-3.448-2.119-8.198-0.984-10.316,2.464c-2.119,3.448-0.984,8.198,2.464,10.316l55.39,34.035
			c7.751,4.763,10.183,14.944,5.42,22.696c-4.763,7.751-14.945,10.183-22.697,5.42l-59.406-36.503
			c-3.529-2.17-8.148-1.065-10.316,2.464c-2.168,3.529-1.065,8.148,2.464,10.316l45.774,28.126
			c7.658,4.705,10.133,15.027,5.42,22.696c-4.705,7.658-15.027,10.132-22.696,5.42l-41.483-25.49
			c-3.53-2.169-8.148-1.065-10.316,2.464c-2.168,3.529-1.065,8.148,2.464,10.316l27.851,17.113
			c7.657,4.706,10.133,15.026,5.42,22.696c-4.705,7.657-15.027,10.133-22.696,5.42c0,0-24.493-15.035-24.722-15.145
			c-3.425-1.654-7.612-0.477-9.644,2.831c-2.168,3.529-1.065,8.148,2.464,10.316l10.418,6.401
			c7.751,4.763,10.182,14.944,5.419,22.696c-4.705,7.658-15.027,10.132-22.696,5.42l-4.188-2.574l3.527-5.716
			c4.508-7.307,5.907-16.306,3.837-24.689c-2.042-8.273-7.135-15.174-14.339-19.433c-5.621-3.322-11.91-4.667-18.033-4.254
			c1.15-4.939,1.156-10.145-0.076-15.135c-2.042-8.273-7.135-15.174-14.339-19.433c-5.621-3.323-11.91-4.668-18.033-4.255
			c3.093-13.286-2.601-27.582-14.415-34.567c-5.621-3.322-11.91-4.667-18.033-4.255c3.093-13.286-2.601-27.582-14.415-34.567
			c-14.667-8.67-33.88-3.922-42.829,10.581l-30.906,50.09L79.61,352.667l46.732-119.427l25.445,4.49
			c-7.237,8.989-9.272,21.644-4.172,32.844c5.277,11.587,16.742,18.443,28.714,18.442c4.36,0,8.789-0.91,13.009-2.832l43.923-20.005
			c3.72-1.694,5.411-6.214,3.717-9.934c-1.694-3.719-6.214-5.412-9.934-3.717l-43.923,20.004
			c-8.278,3.772-18.084,0.103-21.855-8.177c-3.771-8.28-0.103-18.084,8.177-21.855l70.285-32.011l83.608,7.2
			c0.215,0.019,0.43,0.028,0.644,0.028c1.82,0,3.587-0.663,4.963-1.877l7.117-6.284l100.173,98.837L416.602,328.907z"/>
	</g>
</g>
<g>
</g>
<g>
</g>
<g>
</g>
<g>
</g>
<g>
</g>
<g>
</g>
<g>
</g>
<g>
</g>
<g>
</g>
<g>
</g>
<g>
</g>
<g>
</g>
<g>
</g>
<g>
</g>
<g>
</g>
</svg>
