<?xml version="1.0" encoding="UTF-8"?>
<svg id="b" data-name="Layer 2" xmlns="http://www.w3.org/2000/svg" viewBox="0 0 281.7 207.4">
  <g id="c" data-name="Layer 1">
    <g>
      <text transform="translate(0 169.9)" style="fill: #fff; font-family: Futura-Bold, Futura; font-size: 109.1px; font-weight: 700;"><tspan x="0" y="0" style="letter-spacing: 0em;">m</tspan><tspan x="101.7" y="0" style="letter-spacing: 0em;">a</tspan><tspan x="175.9" y="0" style="letter-spacing: 0em;">t</tspan><tspan x="213.4" y="0" style="letter-spacing: 0em;">e</tspan></text>
      <g>
        <path d="M112.2,7.1l11.7,8.2-11.6,16.6-11.6-8.2c-2.7-1.9-6.1-3.1-9.4-3.4-10.5-.9-19.9,7-20.8,17.5-.9,10.5,7,19.9,17.5,20.8,6.9,.6,13.5-2.5,17.4-8.2l21.8-31.2c3.9-6.5,11.3-10.4,19.1-9.7,3.5,.3,6.9,1.5,9.9,3.6l-11.6,16.6-22.6,32.3c-8,11.4-21.8,17.9-35.7,16.8-21.6-1.8-37.8-21.1-36-42.7C52.1,14.6,71.4-1.7,93,.1c6.9,.6,13.5,3,19.2,7h0Z" style="fill: #6221e8;"/>
        <path d="M188.8,78.9c21.6,1.8,40.9-14.4,42.7-36C233.3,21.3,217.1,2,195.5,.1c-13.9-1.2-27.8,5.3-35.7,16.8l-22.6,32.3-11.6,16.6c2.9,2,6.3,3.3,9.9,3.6,7.8,.7,15.2-3.2,19.1-9.7l21.8-31.2c4-5.7,10.6-8.8,17.4-8.2,10.5,.9,18.4,10.3,17.5,20.8-.9,10.5-10.3,18.4-20.8,17.5-3.3-.3-6.7-1.5-9.4-3.4l-11.6-8.2-11.6,16.6,11.7,8.2c5.7,4,12.3,6.4,19.2,7Z" style="fill: #3bb89f;"/>
      </g>
    </g>
  </g>
</svg>