<svg version="1.1" width="101" height="88" 
	xmlns="http://www.w3.org/2000/svg" xmlns:xlink="http://www.w3.org/1999/xlink" x="0px" y="0px" viewBox="0 0 468.3 133.2"
	style="enable-background:new 0 0 468.3 133.2;" xml:space="preserve">
<style type="text/css">
	.st0{enable-background:new    ;}
	.st1{fill:#FFFFFF;}
	.st2{fill:#6221E8;}
	.st3{fill:#3BB89F;}
</style>
<g>
	<g>
		<g class="st0">
			<path class="st1" d="M193.3,39.7H213v6.9c5.4-5.2,11.4-7.7,18.1-7.7c8.3,0,14.6,3.5,19,10.5c4.4-7.1,10.8-10.6,19-10.6
				c2.6,0,5.1,0.4,7.4,1.1c2.3,0.8,4.3,2,6,3.6c1.7,1.6,3,3.8,4,6.4c1,2.6,1.5,5.8,1.5,9.5v36.3h-19.7V68.1c0-2.8-0.2-5.2-0.6-7
				c-0.4-1.8-1-3.2-1.7-4.3c-0.8-1-1.7-1.7-2.7-2.1c-1-0.4-2.1-0.5-3.3-0.5c-6.3,0-9.5,4.6-9.5,13.9v27.6h-19.7V68.1
				c0-2.8-0.2-5.2-0.5-7c-0.4-1.9-0.9-3.3-1.6-4.4c-0.7-1.1-1.6-1.8-2.7-2.2c-1.1-0.4-2.4-0.6-3.8-0.6c-1.2,0-2.4,0.2-3.5,0.5
				c-1.1,0.4-2.1,1.1-2.9,2.1c-0.8,1.1-1.5,2.5-2,4.4c-0.5,1.9-0.7,4.3-0.7,7.3v27.6h-19.7V39.7z"/>
		</g>
		<g class="st0">
			<path class="st1" d="M338.2,39.7H358v56h-19.9v-6.2c-4.2,5.3-9.9,8-17.1,8c-4.1,0-7.8-0.7-11.2-2.2c-3.4-1.5-6.4-3.6-8.9-6.3
				c-2.5-2.7-4.5-5.9-5.9-9.5c-1.4-3.6-2.1-7.6-2.1-11.9c0-4,0.7-7.8,2.1-11.4c1.4-3.6,3.3-6.7,5.8-9.4c2.5-2.7,5.4-4.8,8.8-6.4
				c3.4-1.6,7.2-2.3,11.3-2.3c7,0,12.8,2.4,17.3,7.3V39.7z M313.3,67.6c0,1.8,0.3,3.5,1,5.1c0.7,1.6,1.5,2.9,2.7,4.1
				c1.1,1.2,2.5,2.1,4,2.7c1.6,0.7,3.3,1,5.1,1c1.7,0,3.4-0.3,5-1c1.6-0.7,2.9-1.6,4-2.7c1.1-1.2,2-2.5,2.7-4c0.7-1.5,1-3.2,1-4.9
				c0-1.7-0.3-3.4-1-5c-0.7-1.6-1.6-2.9-2.7-4.1c-1.1-1.2-2.5-2.1-4-2.7c-1.6-0.7-3.2-1-5-1c-1.8,0-3.5,0.3-5.1,1
				c-1.6,0.7-2.9,1.6-4,2.7c-1.1,1.2-2,2.5-2.7,4C313.6,64.2,313.3,65.8,313.3,67.6z"/>
		</g>
		<g class="st0">
			<path class="st1" d="M391.2,56.2v39.5h-19.7V56.2h-6.5V39.7h6.5V22.9h19.7v16.8h11.2v16.5H391.2z"/>
		</g>
		<g class="st0">
			<path class="st1" d="M424.4,71c0,8.5,4,12.8,12,12.8c4.3,0,7.5-1.7,9.7-5.2h19.1c-3.9,12.8-13.5,19.2-28.9,19.2
				c-4.7,0-9.1-0.7-13-2.1s-7.3-3.4-10.1-6.1c-2.8-2.6-5-5.7-6.5-9.4c-1.5-3.6-2.3-7.7-2.3-12.2c0-4.7,0.7-8.9,2.2-12.6
				c1.5-3.7,3.5-6.9,6.2-9.5c2.7-2.6,5.9-4.6,9.8-6.1c3.8-1.4,8.1-2.1,12.9-2.1c4.7,0,9,0.7,12.8,2.1c3.8,1.4,7,3.5,9.6,6.2
				c2.6,2.7,4.6,6,6,9.9c1.4,3.9,2.1,8.3,2.1,13.1V71H424.4z M447.6,59.6c-0.7-2.8-2-5-4-6.7c-2-1.7-4.5-2.5-7.4-2.5
				c-3.1,0-5.5,0.8-7.5,2.4c-1.9,1.6-3.1,3.9-3.7,6.8H447.6z"/>
		</g>
		<g>
			<path class="st2" d="M62.1,35.3l11.7,8.2L62.2,60.1l-11.6-8.2c-2.7-1.9-6.1-3.1-9.4-3.4c-10.5-0.9-19.9,7-20.8,17.5
				s7,19.9,17.5,20.8c6.9,0.6,13.5-2.5,17.4-8.2l21.8-31.2C81,40.9,88.4,37,96.2,37.7c3.5,0.3,6.9,1.5,9.9,3.6L94.5,57.9L71.9,90.2
				c-8,11.4-21.8,17.9-35.7,16.8C14.6,105.2-1.7,85.9,0.1,64.3c1.9-21.6,21.2-37.8,42.8-36C49.8,28.9,56.4,31.3,62.1,35.3
				C62.1,35.3,62.1,35.3,62.1,35.3z"/>
			<path class="st3" d="M138.7,107c21.6,1.8,40.9-14.4,42.7-36c1.8-21.6-14.4-40.9-36-42.7c-13.9-1.2-27.8,5.3-35.7,16.8L87.1,77.4
				L75.5,94c2.9,2,6.3,3.3,9.9,3.6c7.8,0.7,15.2-3.2,19.1-9.7l21.8-31.2c4-5.7,10.6-8.8,17.4-8.2c10.5,0.9,18.4,10.3,17.5,20.8
				s-10.3,18.4-20.8,17.5c-3.3-0.3-6.7-1.5-9.4-3.4l-11.6-8.2l-11.6,16.6l11.7,8.2C125.2,104,131.8,106.4,138.7,107L138.7,107z"/>
		</g>
	</g>
</g>
</svg>
